<svg width="87" height="87" viewBox="0 0 87 87" fill="none" xmlns="http://www.w3.org/2000/svg">
<g id="&#240;&#159;&#166;&#134; icon &#34;bmw&#34;">
<path id="Vector" d="M43.094 0C19.2941 0 0 19.2941 0 43.094C0 66.8939 19.2941 86.1883 43.094 86.1883C66.8939 86.1883 86.188 66.8939 86.188 43.094C86.188 19.2941 66.8939 0 43.094 0Z" fill="url(#paint0_linear_852_4730)"/>
<path id="Vector_2" d="M42.8902 70.6185C27.6875 70.6185 15.363 58.2942 15.363 43.0916C15.363 27.8889 27.6875 15.5645 42.8902 15.5645C58.0925 15.5645 70.4171 27.8889 70.4171 43.0916C70.4171 58.2942 58.0928 70.6185 42.8902 70.6185Z" fill="white"/>
<path id="Vector_3" d="M17.5579 43.0949H43.3139V17.3389C29.0895 17.3389 17.5579 28.8708 17.5579 43.0949ZM43.3139 43.0949V68.8512C57.5386 68.8512 69.0699 57.3196 69.0699 43.0949H43.3139Z" fill="url(#paint1_linear_852_4730)"/>
<g id="Group">
<path id="Vector_4" fill-rule="evenodd" clip-rule="evenodd" d="M18.3447 16.4929C19.6689 15.6719 21.0793 15.9392 21.9918 16.8261C23.3938 18.1889 23.1876 19.7647 21.8539 21.3541L16.017 28.31L7.31616 21.0091L12.8511 14.413C13.9967 13.0478 15.5984 11.9575 17.1203 13.2345C17.1485 13.2581 17.1756 13.2808 17.202 13.3028C17.6156 13.6479 17.8237 13.8215 18.36 14.7995C18.4943 15.1685 18.5976 15.8374 18.3447 16.4929ZM15.876 16.0748C15.3161 15.6052 14.4457 15.5864 14.0606 16.0455L10.7361 20.0073L12.7926 21.733L16.0795 17.8159C16.4929 17.3235 16.4914 16.5913 15.876 16.0748ZM16.4432 24.7963L19.9087 20.6665C20.369 20.1181 20.3025 19.2635 19.6309 18.7003C19.0377 18.2023 18.1581 18.3393 17.7636 18.8094L14.2701 22.9729L16.4432 24.7963Z" fill="white"/>
<path id="Vector_5" d="M46.652 5.77348L43.6641 13.6935H41.1831L38.1948 5.77348V13.6935H35.9241V2.35059H39.3362L42.4236 10.4299L45.5109 2.35059H48.9231V13.6935H46.652V5.77348Z" fill="white"/>
<path id="Vector_6" d="M69.9198 24.4651L74.1953 18.4118L72.3124 16.0867L65.5026 19.0103L69.9585 13.181L68.2037 11.0137L61.0876 20.1671L63.1675 22.7149L69.8899 19.9485L69.9139 19.9786L65.8104 25.9787L67.8703 28.5428L78.3031 23.4856L76.5479 21.3182L69.9198 24.4651Z" fill="white"/>
</g>
</g>
<defs>
<linearGradient id="paint0_linear_852_4730" x1="13.1644" y1="13.1643" x2="71.3612" y2="74.6865" gradientUnits="userSpaceOnUse">
<stop offset="0.0273393" stop-color="#949AA0"/>
<stop offset="0.403335" stop-color="#1A1D1E"/>
<stop offset="1" stop-color="#040606"/>
</linearGradient>
<linearGradient id="paint1_linear_852_4730" x1="43.3139" y1="17.3389" x2="43.3139" y2="68.8512" gradientUnits="userSpaceOnUse">
<stop stop-color="#7CD1F4"/>
<stop offset="1" stop-color="#1274B9"/>
</linearGradient>
</defs>
</svg>
